<?xml version="1.0" encoding="iso-8859-1"?>
<!-- Generator: Adobe Illustrator 19.0.0, SVG Export Plug-In . SVG Version: 6.00 Build 0)  -->
<svg version="1.1" id="Layer_1" xmlns="http://www.w3.org/2000/svg" xmlns:xlink="http://www.w3.org/1999/xlink" x="0px" y="0px"
	 viewBox="0 0 310.999 310.999" style="enable-background:new 0 0 310.999 310.999;" xml:space="preserve">
<g>
	<g>
		<g>
			<path d="M284.476,69.502h-97.58l-24.413-30.015c-1.709-2.102-4.273-3.321-6.982-3.321h-42.683c-0.01,0-0.021,0-0.031,0H70.063
				c-0.01,0-0.021,0-0.031,0H9c-4.971,0-9,4.029-9,9v203.144c0,14.625,11.898,26.524,26.524,26.524h257.951
				c14.626,0,26.524-11.898,26.524-26.524V96.025C311,81.4,299.102,69.502,284.476,69.502z M151.218,54.166l12.475,15.336h-19.554
				l-12.474-15.336H151.218z M108.463,54.166l12.474,15.336h-19.552L88.911,54.166H108.463z M18,54.166h47.708l12.474,15.336H18
				V54.166z M293,248.309c0,4.7-3.824,8.524-8.524,8.524H26.524c-4.7,0-8.524-3.824-8.524-8.524V87.502h79.1
				c0.003,0,0.006,0,0.009,0c0.004,0,0.008,0,0.012,0h42.734c0.003,0,0.006,0,0.009,0c0.004,0,0.008,0,0.012,0h42.676
				c0.047,0,0.092,0,0.136,0h101.788c4.7,0,8.524,3.824,8.524,8.524V248.309z"/>
			<path d="M262.5,185.833h-63c-4.971,0-9,4.029-9,9v32.916c0,4.971,4.029,9,9,9h63c4.971,0,9-4.029,9-9v-32.916
				C271.5,189.862,267.471,185.833,262.5,185.833z M253.5,218.749h-45v-14.916h45V218.749z"/>
		</g>
	</g>
</g>
<g>
</g>
<g>
</g>
<g>
</g>
<g>
</g>
<g>
</g>
<g>
</g>
<g>
</g>
<g>
</g>
<g>
</g>
<g>
</g>
<g>
</g>
<g>
</g>
<g>
</g>
<g>
</g>
<g>
</g>
</svg>
